<?xml version="1.0" encoding="utf-8"?>
<COLLADA xmlns="http://www.collada.org/2005/11/COLLADASchema" version="1.4.1" xmlns:xsi="http://www.w3.org/2001/XMLSchema-instance">
  <asset>
    <contributor>
      <author>Blender User</author>
      <authoring_tool>Blender 3.0.1</authoring_tool>
    </contributor>
    <created>2025-07-07T13:59:32</created>
    <modified>2025-07-07T13:59:32</modified>
    <unit name="meter" meter="1"/>
    <up_axis>Z_UP</up_axis>
  </asset>
  <library_effects>
    <effect id="Material_003-effect">
      <profile_COMMON>
        <technique sid="common">
          <lambert>
            <emission>
              <color sid="emission">0 0 0 1</color>
            </emission>
            <diffuse>
              <color sid="diffuse">0.8 0.8 0.8 1</color>
            </diffuse>
            <index_of_refraction>
              <float sid="ior">1.45</float>
            </index_of_refraction>
          </lambert>
        </technique>
      </profile_COMMON>
    </effect>
    <effect id="Material_004-effect">
      <profile_COMMON>
        <technique sid="common">
          <lambert>
            <emission>
              <color sid="emission">0 0 0 1</color>
            </emission>
            <diffuse>
              <color sid="diffuse">0 0 0 1</color>
            </diffuse>
            <index_of_refraction>
              <float sid="ior">1.45</float>
            </index_of_refraction>
          </lambert>
        </technique>
      </profile_COMMON>
    </effect>
  </library_effects>
  <library_images/>
  <library_materials>
    <material id="Material_003-material" name="Material.003">
      <instance_effect url="#Material_003-effect"/>
    </material>
    <material id="Material_004-material" name="Material.004">
      <instance_effect url="#Material_004-effect"/>
    </material>
  </library_materials>
  <library_geometries>
    <geometry id="Cube_004-mesh" name="Cube.004">
      <mesh>
        <source id="Cube_004-mesh-positions">
          <float_array id="Cube_004-mesh-positions-array" count="84">-0.858049 -1.141951 -1.014089 -0.858049 -1.141951 0.985911 -0.858049 0.858049 -1.014089 -0.858049 0.858049 0.985911 1.141951 0.858049 -1.014089 1.141951 0.858049 0.985911 -0.858049 -1.141951 -1.014089 -0.858049 -1.141951 0.985911 -0.858049 0.858049 -1.014089 -0.858049 0.858049 0.985911 1.141951 0.858049 -1.014089 1.141951 0.858049 0.985911 1.031677 0.7574275 0.1322676 1.031677 0.7574275 0.6251938 -0.7574275 -1.031677 0.1322676 -0.7574275 -1.031677 0.6251938 1.044501 0.7446029 0.1322676 1.044501 0.7446029 0.6251938 -0.744603 -1.044501 0.1322676 -0.744603 -1.044501 0.6251938 1.031677 0.7574275 -0.6040602 1.031677 0.7574275 -0.1111339 -0.7574275 -1.031677 -0.6040602 -0.7574275 -1.031677 -0.1111339 1.044501 0.7446029 -0.6040602 1.044501 0.7446029 -0.1111339 -0.744603 -1.044501 -0.6040602 -0.744603 -1.044501 -0.1111339</float_array>
          <technique_common>
            <accessor source="#Cube_004-mesh-positions-array" count="28" stride="3">
              <param name="X" type="float"/>
              <param name="Y" type="float"/>
              <param name="Z" type="float"/>
            </accessor>
          </technique_common>
        </source>
        <source id="Cube_004-mesh-normals">
          <float_array id="Cube_004-mesh-normals-array" count="69">-1 0 0 0 1 0 0.7071068 -0.7071068 0 0 0 1 0.7071068 -0.7071069 0 0.7071068 0.7071068 0 -0.7071068 0.7071068 0 -0.7071068 -0.7071068 0 6.49446e-7 0 1 5.19556e-6 0 -1 0.7071068 0.7071067 0 -0.7071068 0.7071068 0 -0.7071068 -0.7071067 0 -5.19557e-6 0 1 -6.49446e-7 0 -1 0.7071068 -0.7071068 0 0.7071068 0.7071068 0 -0.7071068 0.7071068 0 -0.7071068 -0.7071068 0 -5.17527e-7 0 1 -3.369e-6 0 -1 4.16051e-6 0 1 4.26199e-7 0 -1</float_array>
          <technique_common>
            <accessor source="#Cube_004-mesh-normals-array" count="23" stride="3">
              <param name="X" type="float"/>
              <param name="Y" type="float"/>
              <param name="Z" type="float"/>
            </accessor>
          </technique_common>
        </source>
        <source id="Cube_004-mesh-map">
          <float_array id="Cube_004-mesh-map-array" count="210">0.625 0 0.375 0.25 0.375 0 0.625 0.25 0.375 0.5 0.375 0.25 0.625 0 0.375 0.25 0.375 0 0.625 0.25 0.375 0.5 0.375 0.25 0.375 0 0.625 0.5 0.625 0 0.625 0.25 0.625 0 0.625 0.5 0.625 0 0.375 0.25 0.375 0 0.625 0.25 0.375 0.5 0.375 0.25 0.625 0.5 0.375 0.75 0.375 0.5 0.625 0.75 0.375 1 0.375 0.75 0.375 0.5 0.125 0.75 0.125 0.5 0.875 0.5 0.625 0.75 0.625 0.5 0.625 0 0.375 0.25 0.375 0 0.625 0.25 0.375 0.5 0.375 0.25 0.625 0.5 0.375 0.75 0.375 0.5 0.625 0.75 0.375 1 0.375 0.75 0.375 0.5 0.125 0.75 0.125 0.5 0.875 0.5 0.625 0.75 0.625 0.5 0.625 0 0.625 0.25 0.375 0.25 0.625 0.25 0.625 0.5 0.375 0.5 0.625 0 0.625 0.25 0.375 0.25 0.625 0.25 0.625 0.5 0.375 0.5 0.375 0 0.375 0.5 0.625 0.5 0.625 0 0.625 0.25 0.375 0.25 0.625 0.25 0.625 0.5 0.375 0.5 0.625 0.5 0.625 0.75 0.375 0.75 0.625 0.75 0.625 1 0.375 1 0.375 0.5 0.375 0.75 0.125 0.75 0.875 0.5 0.875 0.75 0.625 0.75 0.625 0 0.625 0.25 0.375 0.25 0.625 0.25 0.625 0.5 0.375 0.5 0.625 0.5 0.625 0.75 0.375 0.75 0.625 0.75 0.625 1 0.375 1 0.375 0.5 0.375 0.75 0.125 0.75 0.875 0.5 0.875 0.75 0.625 0.75</float_array>
          <technique_common>
            <accessor source="#Cube_004-mesh-map-array" count="105" stride="2">
              <param name="S" type="float"/>
              <param name="T" type="float"/>
            </accessor>
          </technique_common>
        </source>
        <vertices id="Cube_004-mesh-vertices">
          <input semantic="POSITION" source="#Cube_004-mesh-positions"/>
        </vertices>
        <triangles material="Material_003-material" count="11">
          <input semantic="VERTEX" source="#Cube_004-mesh-vertices" offset="0"/>
          <input semantic="NORMAL" source="#Cube_004-mesh-normals" offset="1"/>
          <input semantic="TEXCOORD" source="#Cube_004-mesh-map" offset="2" set="0"/>
          <p>1 0 0 2 0 1 0 0 2 3 1 3 4 1 4 2 1 5 7 0 6 8 0 7 6 0 8 9 1 9 10 1 10 8 1 11 6 2 12 11 2 13 7 2 14 9 3 15 7 3 16 11 3 17 1 0 54 3 0 55 2 0 56 3 1 57 5 1 58 4 1 59 7 0 60 9 0 61 8 0 62 9 1 63 11 1 64 10 1 65 6 2 66 10 2 67 11 2 68</p>
        </triangles>
        <triangles material="Material_004-material" count="24">
          <input semantic="VERTEX" source="#Cube_004-mesh-vertices" offset="0"/>
          <input semantic="NORMAL" source="#Cube_004-mesh-normals" offset="1"/>
          <input semantic="TEXCOORD" source="#Cube_004-mesh-map" offset="2" set="0"/>
          <p>13 4 18 14 4 19 12 4 20 15 5 21 18 5 22 14 5 23 19 6 24 16 6 25 18 6 26 17 7 27 12 7 28 16 7 29 18 8 30 12 8 31 14 8 32 15 9 33 17 9 34 19 9 35 21 2 36 22 2 37 20 2 38 23 10 39 26 10 40 22 10 41 27 11 42 24 11 43 26 11 44 25 12 45 20 12 46 24 12 47 26 13 48 20 13 49 22 13 50 23 14 51 25 14 52 27 14 53 13 15 69 15 15 70 14 15 71 15 16 72 19 16 73 18 16 74 19 17 75 17 17 76 16 17 77 17 18 78 13 18 79 12 18 80 18 19 81 16 19 82 12 19 83 15 20 84 13 20 85 17 20 86 21 15 87 23 15 88 22 15 89 23 10 90 27 10 91 26 10 92 27 17 93 25 17 94 24 17 95 25 12 96 21 12 97 20 12 98 26 21 99 24 21 100 20 21 101 23 22 102 21 22 103 25 22 104</p>
        </triangles>
      </mesh>
    </geometry>
  </library_geometries>
  <library_visual_scenes>
    <visual_scene id="Scene" name="Scene">
      <node id="Cube" name="Cube" type="NODE">
        <matrix sid="transform">-0.09454263 0.09454263 0 0.200749 -0.09454263 -0.09454263 0 -2.04003e-8 0 0 0.0551825 0.4412255 0 0 0 1</matrix>
        <instance_geometry url="#Cube_004-mesh" name="Cube">
          <bind_material>
            <technique_common>
              <instance_material symbol="Material_003-material" target="#Material_003-material">
                <bind_vertex_input semantic="UVMap" input_semantic="TEXCOORD" input_set="0"/>
              </instance_material>
              <instance_material symbol="Material_004-material" target="#Material_004-material">
                <bind_vertex_input semantic="UVMap" input_semantic="TEXCOORD" input_set="0"/>
              </instance_material>
            </technique_common>
          </bind_material>
        </instance_geometry>
      </node>
    </visual_scene>
  </library_visual_scenes>
  <scene>
    <instance_visual_scene url="#Scene"/>
  </scene>
</COLLADA>